<?xml version="1.0" encoding="UTF-8"?><!DOCTYPE svg PUBLIC "-//W3C//DTD SVG 1.1//EN" "http://www.w3.org/Graphics/SVG/1.1/DTD/svg11.dtd"><svg xmlns="http://www.w3.org/2000/svg" xmlns:xlink="http://www.w3.org/1999/xlink"><symbol id="arrow-right-long-solid" viewBox="0 0 512 512"><!--! Font Awesome Pro 6.1.2 by @fontawesome - https://fontawesome.com License - https://fontawesome.com/license (Commercial License) Copyright 2022 Fonticons, Inc.--><path d="m502.6 278.6-128 128c-12.51 12.51-32.76 12.49-45.25 0-12.5-12.5-12.5-32.75 0-45.25L402.8 288H32c-17.69 0-32-14.3-32-32.9S14.31 224 32 224h370.8l-73.38-73.38c-12.5-12.5-12.5-32.75 0-45.25s32.75-12.5 45.25 0l128 128c12.43 12.53 12.43 32.73-.07 45.23z"/></symbol><symbol id="circle-play-solid" viewBox="0 0 512 512"><!--! Font Awesome Pro 6.1.2 by @fontawesome - https://fontawesome.com License - https://fontawesome.com/license (Commercial License) Copyright 2022 Fonticons, Inc.--><path d="M512 256c0 141.4-114.6 256-256 256S0 397.4 0 256 114.6 0 256 0s256 114.6 256 256zm-336-88v176c0 8.7 4.7 16.7 12.3 20.9 7.5 4.3 16.8 4.1 24.2-.4l144-88c7.1-4.4 11.5-12.1 11.5-20.5s-4.4-16.1-11.5-20.5l-144-88c-7.4-5.4-16.7-4.7-24.2-.4-7.6 4.2-12.3 12.2-12.3 20.9z"/></symbol><symbol id="facebook-f-brands" viewBox="0 0 320 512"><!--! Font Awesome Pro 6.1.2 by @fontawesome - https://fontawesome.com License - https://fontawesome.com/license (Commercial License) Copyright 2022 Fonticons, Inc.--><path d="m279.14 288 14.22-92.66h-88.91v-60.13c0-25.35 12.42-50.06 52.24-50.06h40.42V6.26S260.43 0 225.36 0c-73.22 0-121.08 44.38-121.08 124.72v70.62H22.89V288h81.39v224h100.17V288z"/></symbol><symbol id="globe-solid" viewBox="0 0 512 512"><!--! Font Awesome Pro 6.1.2 by @fontawesome - https://fontawesome.com License - https://fontawesome.com/license (Commercial License) Copyright 2022 Fonticons, Inc.--><path d="M352 256c0 22.2-1.2 43.6-3.3 64H163.3c-2.1-20.4-4.2-41.8-4.2-64 0-22.2 2.1-43.6 4.2-64h185.4c2.1 20.4 3.3 41.8 3.3 64zm151.9-64c5.3 20.5 8.1 41.9 8.1 64s-2.8 43.5-8.1 64H380.8c2.1-20.6 3.2-42.9 3.2-64 0-22-1.1-43.4-3.2-64h123.1zm-10.5-32H376.7c-10-63.86-29.8-117.38-55.3-151.558C399.8 29.09 463.4 85.94 493.4 160zm-149.1 0H167.7c6.1-36.4 15.5-68.62 27-94.65 10.5-23.61 22.2-40.74 33.5-51.54C239.4 3.178 248.7 0 256 0c7.3 0 16.6 3.178 27.8 13.81 11.3 10.8 23 27.93 33.5 51.54 11.5 26.03 20.9 58.25 27 94.65zm-325.69 0C48.59 85.94 112.2 29.09 190.6 8.442 165.1 42.62 145.3 96.14 135.3 160H18.61zm112.59 32c-2.1 20.6-4.1 42-4.1 64 0 21.1 2 43.4 4.1 64H8.065C2.8 299.5 0 278.1 0 256s2.8-43.5 8.065-64H131.2zm63.5 254.6c-11.5-26-20.9-58.2-27-94.6h176.6c-6.1 36.4-15.5 68.6-27 94.6-10.5 23.7-22.2 40.8-33.5 51.6-11.2 10.6-20.5 13.8-28.7 13.8-6.4 0-15.7-3.2-26.9-13.8-11.3-10.8-23-27.9-33.5-51.6zm-4.1 57C112.2 482.9 48.59 426.1 18.61 352H135.3c10 63.9 29.8 117.4 55.3 151.6zm130.8 0c25.5-34.2 45.3-87.7 55.3-151.6h116.7c-30 74.1-93.6 130.9-172 151.6z"/></symbol><symbol id="icons"/><symbol id="magnifying-glass-solid" viewBox="0 0 512 512"><!--! Font Awesome Pro 6.1.2 by @fontawesome - https://fontawesome.com License - https://fontawesome.com/license (Commercial License) Copyright 2022 Fonticons, Inc.--><path d="M500.3 443.7 380.6 324c27.22-40.41 40.65-90.9 33.46-144.7C401.8 87.79 326.8 13.32 235.2 1.723 99.01-15.51-15.51 99.01 1.724 235.2c11.6 91.64 86.08 166.7 177.6 178.9 53.8 7.189 104.3-6.236 144.7-33.46l119.7 119.7c15.62 15.62 40.95 15.62 56.57 0 15.606-15.64 15.606-41.04.006-56.64zM79.1 208c0-70.58 57.42-128 128-128s128 57.42 128 128-57.42 128-128 128-128-57.4-128-128z"/></symbol><symbol id="twitter-brands" viewBox="0 0 512 512"><!--! Font Awesome Pro 6.1.2 by @fontawesome - https://fontawesome.com License - https://fontawesome.com/license (Commercial License) Copyright 2022 Fonticons, Inc.--><path d="M459.37 151.716c.325 4.548.325 9.097.325 13.645 0 138.72-105.583 298.558-298.558 298.558-59.452 0-114.68-17.219-161.137-47.106 8.447.974 16.568 1.299 25.34 1.299 49.055 0 94.213-16.568 130.274-44.832-46.132-.975-84.792-31.188-98.112-72.772 6.498.974 12.995 1.624 19.818 1.624 9.421 0 18.843-1.3 27.614-3.573-48.081-9.747-84.143-51.98-84.143-102.985v-1.299c13.969 7.797 30.214 12.67 47.431 13.319-28.264-18.843-46.781-51.005-46.781-87.391 0-19.492 5.197-37.36 14.294-52.954 51.655 63.675 129.3 105.258 216.365 109.807-1.624-7.797-2.599-15.918-2.599-24.04 0-57.828 46.782-104.934 104.934-104.934 30.213 0 57.502 12.67 76.67 33.137 23.715-4.548 46.456-13.32 66.599-25.34-7.798 24.366-24.366 44.833-46.132 57.827 21.117-2.273 41.584-8.122 60.426-16.243-14.292 20.791-32.161 39.308-52.628 54.253z"/></symbol><symbol id="youtube-brands" viewBox="0 0 576 512"><!--! Font Awesome Pro 6.1.2 by @fontawesome - https://fontawesome.com License - https://fontawesome.com/license (Commercial License) Copyright 2022 Fonticons, Inc.--><path d="M549.655 124.083c-6.281-23.65-24.787-42.276-48.284-48.597C458.781 64 288 64 288 64S117.22 64 74.629 75.486c-23.497 6.322-42.003 24.947-48.284 48.597-11.412 42.867-11.412 132.305-11.412 132.305s0 89.438 11.412 132.305c6.281 23.65 24.787 41.5 48.284 47.821C117.22 448 288 448 288 448s170.78 0 213.371-11.486c23.497-6.321 42.003-24.171 48.284-47.821 11.412-42.867 11.412-132.305 11.412-132.305s0-89.438-11.412-132.305zm-317.51 213.508V175.185l142.739 81.205-142.739 81.201z"/></symbol></svg>